<svg width="23" height="25" viewBox="0 0 23 25" fill="none" xmlns="http://www.w3.org/2000/svg">
<path d="M21.8813 4.56247H17.2875V3.64372C17.2875 2.91272 16.9971 2.21166 16.4802 1.69476C15.9633 1.17786 15.2623 0.887474 14.5312 0.887474H9.01875C8.28775 0.887474 7.58668 1.17786 7.06979 1.69476C6.55289 2.21166 6.2625 2.91272 6.2625 3.64372V4.56247H1.66875C1.42508 4.56247 1.19139 4.65927 1.0191 4.83157C0.846797 5.00387 0.75 5.23756 0.75 5.48122C0.75 5.72489 0.846797 5.95858 1.0191 6.13088C1.19139 6.30318 1.42508 6.39997 1.66875 6.39997H2.5875V22.9375C2.5875 23.4248 2.78109 23.8922 3.12569 24.2368C3.47029 24.5814 3.93766 24.775 4.425 24.775H19.125C19.6123 24.775 20.0797 24.5814 20.4243 24.2368C20.7689 23.8922 20.9625 23.4248 20.9625 22.9375V6.39997H21.8813C22.1249 6.39997 22.3586 6.30318 22.5309 6.13088C22.7032 5.95858 22.8 5.72489 22.8 5.48122C22.8 5.23756 22.7032 5.00387 22.5309 4.83157C22.3586 4.65927 22.1249 4.56247 21.8813 4.56247ZM9.9375 18.3437C9.9375 18.5874 9.8407 18.8211 9.6684 18.9934C9.49611 19.1657 9.26242 19.2625 9.01875 19.2625C8.77508 19.2625 8.54139 19.1657 8.3691 18.9934C8.1968 18.8211 8.1 18.5874 8.1 18.3437V10.9937C8.1 10.7501 8.1968 10.5164 8.3691 10.3441C8.54139 10.1718 8.77508 10.075 9.01875 10.075C9.26242 10.075 9.49611 10.1718 9.6684 10.3441C9.8407 10.5164 9.9375 10.7501 9.9375 10.9937V18.3437ZM15.45 18.3437C15.45 18.5874 15.3532 18.8211 15.1809 18.9934C15.0086 19.1657 14.7749 19.2625 14.5312 19.2625C14.2876 19.2625 14.0539 19.1657 13.8816 18.9934C13.7093 18.8211 13.6125 18.5874 13.6125 18.3437V10.9937C13.6125 10.7501 13.7093 10.5164 13.8816 10.3441C14.0539 10.1718 14.2876 10.075 14.5312 10.075C14.7749 10.075 15.0086 10.1718 15.1809 10.3441C15.3532 10.5164 15.45 10.7501 15.45 10.9937V18.3437ZM15.45 4.56247H8.1V3.64372C8.1 3.40006 8.1968 3.16637 8.3691 2.99407C8.54139 2.82177 8.77508 2.72497 9.01875 2.72497H14.5312C14.7749 2.72497 15.0086 2.82177 15.1809 2.99407C15.3532 3.16637 15.45 3.40006 15.45 3.64372V4.56247Z" fill="#FF3333"/>
</svg>
