<svg width="18" height="18" viewBox="0 0 18 18" fill="none" xmlns="http://www.w3.org/2000/svg">
<path d="M17 9C17 9 14 3.5 9 3.5C4 3.5 1 9 1 9C1 9 4 14.5 9 14.5C14 14.5 17 9 17 9ZM2.173 9C2.65578 8.26459 3.21197 7.58008 3.833 6.957C5.12 5.668 6.88 4.5 9 4.5C11.12 4.5 12.879 5.668 14.168 6.957C14.789 7.58008 15.3452 8.26459 15.828 9C15.7707 9.08667 15.7057 9.18267 15.633 9.288C15.298 9.768 14.803 10.408 14.168 11.043C12.879 12.332 11.119 13.5 9 13.5C6.881 13.5 5.121 12.332 3.832 11.043C3.21097 10.4199 2.65578 9.73541 2.173 9Z" fill="#B5B5B5"/>
<path d="M9 6.49841C8.33696 6.49841 7.70107 6.76181 7.23223 7.23065C6.76339 7.69949 6.5 8.33537 6.5 8.99841C6.5 9.66145 6.76339 10.2973 7.23223 10.7662C7.70107 11.235 8.33696 11.4984 9 11.4984C9.66304 11.4984 10.2989 11.235 10.7678 10.7662C11.2366 10.2973 11.5 9.66145 11.5 8.99841C11.5 8.33537 11.2366 7.69949 10.7678 7.23065C10.2989 6.76181 9.66304 6.49841 9 6.49841ZM5.5 8.99841C5.5 8.07016 5.86875 7.17992 6.52513 6.52354C7.1815 5.86716 8.07174 5.49841 9 5.49841C9.92826 5.49841 10.8185 5.86716 11.4749 6.52354C12.1313 7.17992 12.5 8.07016 12.5 8.99841C12.5 9.92667 12.1313 10.8169 11.4749 11.4733C10.8185 12.1297 9.92826 12.4984 9 12.4984C8.07174 12.4984 7.1815 12.1297 6.52513 11.4733C5.86875 10.8169 5.5 9.92667 5.5 8.99841Z" fill="#B5B5B5"/>
</svg>
