<svg viewBox="0 0 20 20" fill="none" xmlns="http://www.w3.org/2000/svg">
<g clip-path="url(#clip0_184_6061)">
<mask id="mask0_184_6061" style="mask-type:alpha" maskUnits="userSpaceOnUse" x="0" y="0" width="20" height="20">
<rect width="20" height="20" fill="#D9D9D9"/>
</mask>
<g mask="url(#mask0_184_6061)">
<path d="M9.99984 14.167C10.2359 14.167 10.4339 14.0871 10.5936 13.9274C10.7533 13.7677 10.8332 13.5698 10.8332 13.3337C10.8332 13.0975 10.7533 12.8996 10.5936 12.7399C10.4339 12.5802 10.2359 12.5003 9.99984 12.5003C9.76373 12.5003 9.56581 12.5802 9.40609 12.7399C9.24637 12.8996 9.1665 13.0975 9.1665 13.3337C9.1665 13.5698 9.24637 13.7677 9.40609 13.9274C9.56581 14.0871 9.76373 14.167 9.99984 14.167ZM9.1665 10.0003C9.1665 10.4606 9.5396 10.8337 9.99984 10.8337C10.4601 10.8337 10.8332 10.4606 10.8332 10.0003V6.66699C10.8332 6.20675 10.4601 5.83366 9.99984 5.83366C9.5396 5.83366 9.1665 6.20675 9.1665 6.66699V10.0003ZM9.99984 18.3337C8.84706 18.3337 7.76373 18.1149 6.74984 17.6774C5.73595 17.2399 4.854 16.6462 4.104 15.8962C3.354 15.1462 2.76025 14.2642 2.32275 13.2503C1.88525 12.2364 1.6665 11.1531 1.6665 10.0003C1.6665 8.84755 1.88525 7.76421 2.32275 6.75033C2.76025 5.73644 3.354 4.85449 4.104 4.10449C4.854 3.35449 5.73595 2.76074 6.74984 2.32324C7.76373 1.88574 8.84706 1.66699 9.99984 1.66699C11.1526 1.66699 12.2359 1.88574 13.2498 2.32324C14.2637 2.76074 15.1457 3.35449 15.8957 4.10449C16.6457 4.85449 17.2394 5.73644 17.6769 6.75033C18.1144 7.76421 18.3332 8.84755 18.3332 10.0003C18.3332 11.1531 18.1144 12.2364 17.6769 13.2503C17.2394 14.2642 16.6457 15.1462 15.8957 15.8962C15.1457 16.6462 14.2637 17.2399 13.2498 17.6774C12.2359 18.1149 11.1526 18.3337 9.99984 18.3337Z" fill="#B0B4B8"/>
</g>
</g>
<defs>
<clipPath id="clip0_184_6061">
<rect width="20" height="20" fill="white"/>
</clipPath>
</defs>
</svg>
