<svg width="50" height="50" viewBox="0 0 50 50" fill="none" xmlns="http://www.w3.org/2000/svg">
<circle cx="25" cy="25" r="25" fill="#4D44B5"/>
<g clip-path="url(#clip0_187_5637)">
<path d="M17.2082 43.0009C18.8191 43.0009 20.1249 41.6951 20.1249 40.0843C20.1249 38.4734 18.8191 37.1676 17.2082 37.1676C15.5974 37.1676 14.2916 38.4734 14.2916 40.0843C14.2916 41.6951 15.5974 43.0009 17.2082 43.0009Z" fill="white"/>
<path d="M31.7917 43.0009C33.4025 43.0009 34.7083 41.6951 34.7083 40.0843C34.7083 38.4734 33.4025 37.1676 31.7917 37.1676C30.1808 37.1676 28.875 38.4734 28.875 40.0843C28.875 41.6951 30.1808 43.0009 31.7917 43.0009Z" fill="white"/>
<path d="M40.5418 12.375H37.6251V9.45832C37.6251 9.07154 37.4715 8.70061 37.198 8.42712C36.9245 8.15363 36.5536 7.99998 36.1668 7.99998C35.78 7.99998 35.4091 8.15363 35.1356 8.42712C34.8621 8.70061 34.7085 9.07154 34.7085 9.45832V12.375H31.7918C31.405 12.375 31.0341 12.5286 30.7606 12.8021C30.4871 13.0756 30.3335 13.4465 30.3335 13.8333C30.3335 14.2201 30.4871 14.591 30.7606 14.8645C31.0341 15.138 31.405 15.2917 31.7918 15.2917H34.7085V18.2083C34.7085 18.5951 34.8621 18.966 35.1356 19.2395C35.4091 19.513 35.78 19.6667 36.1668 19.6667C36.5536 19.6667 36.9245 19.513 37.198 19.2395C37.4715 18.966 37.6251 18.5951 37.6251 18.2083V15.2917H40.5418C40.9286 15.2917 41.2995 15.138 41.573 14.8645C41.8465 14.591 42.0001 14.2201 42.0001 13.8333C42.0001 13.4465 41.8465 13.0756 41.573 12.8021C41.2995 12.5286 40.9286 12.375 40.5418 12.375V12.375Z" fill="white"/>
<path d="M38.7494 22.1838C38.5608 22.1485 38.3671 22.151 38.1795 22.1911C37.992 22.2312 37.8142 22.3082 37.6566 22.4175C37.4989 22.5268 37.3646 22.6664 37.2613 22.828C37.158 22.9897 37.0878 23.1702 37.0548 23.3592C36.8729 24.3686 36.3422 25.282 35.5553 25.9398C34.7684 26.5977 33.7754 26.9582 32.7498 26.9583H14.9013L13.5304 15.2917H25.9583C26.3451 15.2917 26.716 15.138 26.9895 14.8645C27.263 14.591 27.4167 14.2201 27.4167 13.8333C27.4167 13.4466 27.263 13.0756 26.9895 12.8021C26.716 12.5286 26.3451 12.375 25.9583 12.375H13.1863L13.125 11.8617C12.9993 10.798 12.4878 9.81731 11.6874 9.10557C10.8869 8.39383 9.85319 8.00046 8.78208 8H8.45833C8.07156 8 7.70063 8.15365 7.42714 8.42714C7.15365 8.70063 7 9.07156 7 9.45833C7 9.84511 7.15365 10.216 7.42714 10.4895C7.70063 10.763 8.07156 10.9167 8.45833 10.9167H8.78208C9.13928 10.9167 9.48403 11.0479 9.75096 11.2852C10.0179 11.5226 10.1884 11.8496 10.2302 12.2044L12.2369 29.2669C12.4452 31.0414 13.2978 32.6776 14.6328 33.865C15.9678 35.0524 17.6923 35.7084 19.479 35.7083H34.7083C35.0951 35.7083 35.466 35.5547 35.7395 35.2812C36.013 35.0077 36.1667 34.6368 36.1667 34.25C36.1667 33.8632 36.013 33.4923 35.7395 33.2188C35.466 32.9453 35.0951 32.7917 34.7083 32.7917H19.479C18.5741 32.7918 17.6914 32.5114 16.9526 31.9891C16.2137 31.4667 15.655 30.7281 15.3533 29.875H32.7498C34.4592 29.8752 36.1143 29.2748 37.426 28.1787C38.7377 27.0826 39.6227 25.5605 39.9262 23.8783C39.9603 23.6898 39.9569 23.4964 39.9162 23.3091C39.8755 23.1219 39.7983 22.9445 39.689 22.7872C39.5797 22.6298 39.4404 22.4955 39.2792 22.392C39.118 22.2884 38.938 22.2177 38.7494 22.1838Z" fill="white"/>
</g>
<defs>
<clipPath id="clip0_187_5637">
<rect width="35" height="35" fill="white" transform="translate(7 8)"/>
</clipPath>
</defs>
</svg>
