<svg width="33" height="33" viewBox="0 0 33 33" fill="none" xmlns="http://www.w3.org/2000/svg">
<rect width="33" height="33" rx="5" fill="#374957" fill-opacity="0.1"/>
<g clip-path="url(#clip0_7_221)">
<path d="M28.9999 15.0839H26.9999V13.2505C26.9999 13.0074 26.8945 12.7743 26.707 12.6023C26.5194 12.4304 26.2651 12.3339 25.9999 12.3339C25.7347 12.3339 25.4803 12.4304 25.2928 12.6023C25.1052 12.7743 24.9999 13.0074 24.9999 13.2505V15.0839H22.9999C22.7347 15.0839 22.4803 15.1804 22.2928 15.3523C22.1052 15.5243 21.9999 15.7574 21.9999 16.0005C21.9999 16.2436 22.1052 16.4768 22.2928 16.6487C22.4803 16.8206 22.7347 16.9172 22.9999 16.9172H24.9999V18.7505C24.9999 18.9936 25.1052 19.2268 25.2928 19.3987C25.4803 19.5706 25.7347 19.6672 25.9999 19.6672C26.2651 19.6672 26.5194 19.5706 26.707 19.3987C26.8945 19.2268 26.9999 18.9936 26.9999 18.7505V16.9172H28.9999C29.2651 16.9172 29.5194 16.8206 29.707 16.6487C29.8945 16.4768 29.9999 16.2436 29.9999 16.0005C29.9999 15.7574 29.8945 15.5243 29.707 15.3523C29.5194 15.1804 29.2651 15.0839 28.9999 15.0839Z" fill="black"/>
<path d="M15 15.9999C16.1867 15.9999 17.3467 15.6774 18.3334 15.073C19.3201 14.4687 20.0892 13.6097 20.5433 12.6047C20.9974 11.5997 21.1162 10.4938 20.8847 9.42695C20.6532 8.36005 20.0818 7.38004 19.2426 6.61085C18.4035 5.84167 17.3344 5.31784 16.1705 5.10562C15.0067 4.8934 13.8003 5.00232 12.7039 5.4186C11.6075 5.83489 10.6705 6.53983 10.0112 7.44431C9.35189 8.34878 9 9.41214 9 10.4999C9.00159 11.9582 9.63424 13.3563 10.7591 14.3874C11.884 15.4186 13.4092 15.9985 15 15.9999ZM15 6.83327C15.7911 6.83327 16.5645 7.04832 17.2223 7.45122C17.8801 7.85412 18.3928 8.42677 18.6955 9.09677C18.9983 9.76676 19.0775 10.504 18.9231 11.2153C18.7688 11.9265 18.3878 12.5799 17.8284 13.0927C17.269 13.6055 16.5563 13.9547 15.7804 14.0962C15.0044 14.2376 14.2002 14.165 13.4693 13.8875C12.7384 13.61 12.1136 13.14 11.6741 12.537C11.2346 11.9341 11 11.2251 11 10.4999C11 9.52748 11.4214 8.59485 12.1716 7.90722C12.9217 7.21958 13.9391 6.83327 15 6.83327V6.83327Z" fill="black"/>
<path d="M15 17.8339C12.6139 17.8363 10.3262 18.7063 8.63896 20.2529C6.95171 21.7996 6.00265 23.8966 6 26.0839C6 26.327 6.10536 26.5601 6.29289 26.732C6.48043 26.904 6.73478 27.0005 7 27.0005C7.26522 27.0005 7.51957 26.904 7.70711 26.732C7.89464 26.5601 8 26.327 8 26.0839C8 24.3821 8.7375 22.75 10.0503 21.5466C11.363 20.3432 13.1435 19.6672 15 19.6672C16.8565 19.6672 18.637 20.3432 19.9497 21.5466C21.2625 22.75 22 24.3821 22 26.0839C22 26.327 22.1054 26.5601 22.2929 26.732C22.4804 26.904 22.7348 27.0005 23 27.0005C23.2652 27.0005 23.5196 26.904 23.7071 26.732C23.8946 26.5601 24 26.327 24 26.0839C23.9974 23.8966 23.0483 21.7996 21.361 20.2529C19.6738 18.7063 17.3861 17.8363 15 17.8339V17.8339Z" fill="black"/>
</g>
<defs>
<clipPath id="clip0_7_221">
<rect width="24" height="22" fill="white" transform="translate(6 5)"/>
</clipPath>
</defs>
</svg>
