<svg width="33" height="33" viewBox="0 0 33 33" fill="none" xmlns="http://www.w3.org/2000/svg">
<rect width="33" height="33" rx="5" fill="#374957" fill-opacity="0.1"/>
<path d="M20 10L24.5 5.5L27.5 8.50004L23.0001 13.0001L20 10Z" fill="#8F8FD8"/>
<g clip-path="url(#clip0_7_221)">
<path d="M26.9487 6.05235C26.3255 5.43012 25.4809 5.08063 24.6002 5.08063C23.7196 5.08063 22.8749 5.43012 22.2517 6.05235L7.34305 20.961C6.91612 21.3856 6.5776 21.8905 6.34709 22.4467C6.11658 23.003 5.99866 23.5994 6.00014 24.2014V26.0834C6.00014 26.3265 6.09671 26.5596 6.26862 26.7315C6.44053 26.9034 6.67369 27 6.9168 27H8.79872C9.40075 27.0017 9.99714 26.884 10.5534 26.6536C11.1096 26.4233 11.6146 26.0849 12.0391 25.658L26.9487 10.7484C27.5707 10.1253 27.92 9.28082 27.92 8.40039C27.92 7.51997 27.5707 6.67551 26.9487 6.05235V6.05235ZM10.743 24.3619C10.226 24.8754 9.52744 25.1646 8.79872 25.1667H7.83347V24.2014C7.83254 23.8402 7.90328 23.4823 8.04159 23.1486C8.17989 22.8149 8.38302 22.5119 8.63922 22.2572L19.9536 10.9428L22.062 13.0511L10.743 24.3619ZM25.6516 9.45227L23.3545 11.7504L21.2461 9.6466L23.5442 7.34852C23.6827 7.21038 23.8469 7.10087 24.0277 7.02623C24.2085 6.95158 24.4022 6.91328 24.5977 6.91349C24.7933 6.9137 24.9869 6.95243 25.1675 7.02747C25.3481 7.1025 25.5121 7.21237 25.6503 7.35081C25.7884 7.48925 25.8979 7.65353 25.9726 7.83429C26.0472 8.01505 26.0855 8.20874 26.0853 8.40431C26.0851 8.59987 26.0463 8.79348 25.9713 8.97407C25.8963 9.15467 25.7864 9.31872 25.648 9.45685L25.6516 9.45227Z" fill="black"/>
</g>
<defs>
<clipPath id="clip0_7_221">
<rect width="22" height="22" fill="white" transform="translate(6 5)"/>
</clipPath>
</defs>
</svg>
