<svg width="22" height="22" viewBox="0 0 22 22" fill="none" xmlns="http://www.w3.org/2000/svg">
<path d="M5 8.5L7.5 8L11 7.5L14.5 5L13 2.5L14 1.5L16 2L18.5 4L19.5 6L21 8L17 8.5L14 11V15L12.5 17.5L5.5 12.5L5 8.5Z" fill="#ED7678"/>
<g clip-path="url(#clip0_7_221)">
<path d="M0.916593 22.0004C1.15969 22.0004 1.39281 21.9038 1.56468 21.7318L7.63209 15.6644L8.77609 16.8488C9.63834 17.7599 10.8267 18.292 12.0807 18.3283C12.4987 18.3295 12.9138 18.2592 13.3081 18.1202C13.9173 17.9104 14.4524 17.5284 14.8487 17.0204C15.2449 16.5124 15.4851 15.9002 15.5402 15.2583C15.6396 14.3287 15.5707 13.3888 15.3367 12.4836L15.1405 11.5284C15.1033 11.3757 15.1061 11.216 15.1485 11.0646C15.1908 10.9132 15.2714 10.7753 15.3825 10.664L16.8373 9.20835C16.8947 9.15074 16.9723 9.11784 17.0536 9.11668C17.0821 9.11137 17.1116 9.11414 17.1386 9.12466C17.1657 9.13519 17.1892 9.15306 17.2067 9.17626C17.6671 9.66453 18.2865 9.97263 18.9537 10.0452C19.6209 10.1178 20.2921 9.9501 20.8468 9.57226C21.1722 9.34025 21.4432 9.04007 21.6408 8.69264C21.8384 8.34521 21.9579 7.95888 21.991 7.56055C22.0241 7.16222 21.9699 6.76147 21.8323 6.38621C21.6947 6.01095 21.4769 5.67019 21.1942 5.38768L16.6833 0.87493C16.2201 0.400189 15.6048 0.103357 14.9449 0.0363318C14.285 -0.0306936 13.6226 0.136352 13.0734 0.508263C12.7479 0.74021 12.4768 1.04033 12.2792 1.38772C12.0815 1.73512 11.9619 2.12143 11.9287 2.51976C11.8955 2.91809 11.9496 3.31887 12.0872 3.69417C12.2247 4.06946 12.4424 4.41027 12.7251 4.69285L12.7948 4.76251C12.8473 4.8154 12.8767 4.8869 12.8767 4.96143C12.8767 5.03596 12.8473 5.10746 12.7948 5.16035L11.3281 6.62701C11.2156 6.73929 11.0758 6.82038 10.9225 6.86232C10.7692 6.90427 10.6076 6.90563 10.4536 6.86626L9.70468 6.67468C8.78347 6.43409 7.82641 6.36174 6.87951 6.4611C6.20792 6.53065 5.57022 6.79076 5.04157 7.21076C4.51292 7.63075 4.11536 8.19313 3.89576 8.8316C3.65611 9.4877 3.60886 10.1986 3.75956 10.8807C3.91026 11.5627 4.25265 12.1875 4.74643 12.6816L6.35793 14.3499L0.26851 20.4357C0.140351 20.5639 0.0530789 20.7272 0.0177253 20.905C-0.0176283 21.0828 0.000524401 21.2671 0.0698886 21.4345C0.139253 21.602 0.256714 21.7452 0.407423 21.8459C0.558132 21.9466 0.735322 22.0004 0.916593 22.0004ZM5.62368 9.4421C5.72697 9.1298 5.91858 8.85415 6.17531 8.64851C6.43203 8.44287 6.74287 8.31606 7.07018 8.28343C7.28121 8.26146 7.49325 8.25045 7.70543 8.25043C8.22547 8.25046 8.74335 8.31731 9.24634 8.44935L10.0008 8.64185C10.463 8.75879 10.9476 8.75396 11.4074 8.62785C11.8671 8.50174 12.2864 8.25865 12.6243 7.92226L14.0909 6.4556C14.4867 6.05867 14.7089 5.52102 14.7089 4.96051C14.7089 4.4 14.4867 3.86236 14.0909 3.46543L14.0213 3.39576C13.9263 3.30107 13.8534 3.18672 13.8074 3.06076C13.7615 2.9348 13.7438 2.8003 13.7555 2.66674C13.7672 2.53318 13.8081 2.40382 13.8752 2.28777C13.9424 2.17173 14.0341 2.07182 14.1441 1.9951C14.3397 1.87669 14.5701 1.82935 14.7966 1.86108C15.023 1.89281 15.2316 2.00165 15.3871 2.16926L19.9008 6.68293C19.9957 6.77762 20.0687 6.89198 20.1146 7.01794C20.1605 7.1439 20.1782 7.2784 20.1665 7.41195C20.1548 7.54551 20.1139 7.67487 20.0468 7.79092C19.9796 7.90697 19.8879 8.00687 19.7779 8.0836C19.5802 8.20363 19.3468 8.25098 19.1179 8.21752C18.8891 8.18406 18.679 8.07187 18.5239 7.90026C18.3353 7.7058 18.1097 7.5511 17.8603 7.44529C17.6109 7.33949 17.3428 7.28474 17.0719 7.28426C16.5005 7.28686 15.9524 7.51173 15.5438 7.91126L14.09 9.36601C13.7599 9.69636 13.5193 10.1053 13.391 10.5544C13.2627 11.0035 13.2509 11.4778 13.3567 11.9327L13.5574 12.9025C13.7424 13.6097 13.7986 14.3443 13.7233 15.0713C13.7014 15.3679 13.5929 15.6514 13.4112 15.8867C13.2294 16.1221 12.9826 16.2988 12.7013 16.395C12.2323 16.5183 11.7381 16.5062 11.2757 16.3602C10.8134 16.2142 10.4018 15.9402 10.0888 15.57L6.05543 11.3992C5.80393 11.1484 5.62959 10.8307 5.55307 10.4838C5.47655 10.137 5.50105 9.77546 5.62368 9.4421V9.4421Z" fill="black"/>
</g>
<defs>
<clipPath id="clip0_7_221">
<rect width="22" height="22" fill="white"/>
</clipPath>
</defs>
</svg>
