<svg width="22" height="22" viewBox="0 0 22 22" fill="none" xmlns="http://www.w3.org/2000/svg">
<path d="M4.99988 8.47815L7.49988 7.97815L10.9999 7.47815L14.4999 4.97815L12.9999 2.47815L13.9999 1.47815L15.9999 1.97815L18.4999 3.97815L19.4999 5.97815L20.9999 7.97815L16.9999 8.47815L13.9999 10.9781V14.9781L12.4999 17.4781L5.49988 12.4781L4.99988 8.47815Z" fill="#C0C0C0"/>
<path d="M0.916471 21.9786C1.15957 21.9785 1.39269 21.8819 1.56455 21.71L7.63197 15.6426L8.77597 16.8269C9.63822 17.7381 10.8266 18.2701 12.0806 18.3064C12.4986 18.3077 12.9137 18.2373 13.308 18.0983C13.9171 17.8886 14.4523 17.5065 14.8485 16.9985C15.2448 16.4905 15.485 15.8784 15.5401 15.2365C15.6395 14.3069 15.5706 13.3669 15.3366 12.4617L15.1404 11.5066C15.1032 11.3538 15.106 11.1941 15.1483 11.0427C15.1907 10.8913 15.2713 10.7534 15.3824 10.6422L16.8371 9.1865C16.8945 9.12889 16.9722 9.09599 17.0535 9.09483C17.082 9.08952 17.1115 9.09229 17.1385 9.10281C17.1655 9.11334 17.1891 9.13121 17.2066 9.15441C17.667 9.64268 18.2864 9.95078 18.9536 10.0234C19.6208 10.0959 20.292 9.92825 20.8466 9.55041C21.1721 9.31839 21.4431 9.01822 21.6407 8.67079C21.8383 8.32336 21.9578 7.93703 21.9909 7.5387C22.0239 7.14037 21.9698 6.73962 21.8322 6.36436C21.6946 5.9891 21.4768 5.64834 21.1941 5.36583L16.6831 0.853079C16.22 0.378338 15.6046 0.0815067 14.9448 0.0144813C14.2849 -0.0525442 13.6225 0.114502 13.0733 0.486413C12.7478 0.718359 12.4767 1.01848 12.279 1.36587C12.0813 1.71327 11.9617 2.09958 11.9286 2.49791C11.8954 2.89624 11.9495 3.29702 12.087 3.67231C12.2246 4.04761 12.4423 4.38842 12.725 4.671L12.7946 4.74066C12.8471 4.79355 12.8766 4.86505 12.8766 4.93958C12.8766 5.01411 12.8471 5.08561 12.7946 5.1385L11.328 6.60516C11.2155 6.71744 11.0757 6.79853 10.9224 6.84047C10.7691 6.88242 10.6075 6.88377 10.4535 6.84441L9.70456 6.65283C8.78335 6.41224 7.82629 6.33989 6.87939 6.43925C6.2078 6.5088 5.5701 6.76891 5.04145 7.1889C4.5128 7.6089 4.11524 8.17128 3.89564 8.80975C3.65599 9.46585 3.60873 10.1768 3.75944 10.8588C3.91014 11.5409 4.25252 12.1657 4.7463 12.6597L6.3578 14.3281L0.268388 20.4138C0.140229 20.542 0.0529568 20.7053 0.0176032 20.8831C-0.0177504 21.0609 0.000402331 21.2452 0.0697665 21.4127C0.139131 21.5802 0.256592 21.7233 0.407301 21.824C0.55801 21.9248 0.7352 21.9785 0.916471 21.9786ZM5.62355 9.42025C5.72685 9.10795 5.91846 8.8323 6.17519 8.62666C6.43191 8.42102 6.74274 8.29421 7.07005 8.26158C7.28109 8.23961 7.49313 8.2286 7.70531 8.22858C8.22534 8.22861 8.74322 8.29546 9.24622 8.4275L10.0006 8.62C10.4628 8.73694 10.9475 8.73211 11.4072 8.606C11.867 8.47989 12.2863 8.2368 12.6241 7.90041L14.0908 6.43375C14.4866 6.03682 14.7088 5.49917 14.7088 4.93866C14.7088 4.37815 14.4866 3.84051 14.0908 3.44358L14.0211 3.37391C13.9262 3.27922 13.8532 3.16487 13.8073 3.03891C13.7614 2.91294 13.7437 2.77844 13.7554 2.64489C13.7671 2.51133 13.808 2.38197 13.8751 2.26592C13.9423 2.14988 14.034 2.04997 14.144 1.97325C14.3396 1.85484 14.57 1.8075 14.7965 1.83923C15.0229 1.87096 15.2315 1.9798 15.387 2.14741L19.9006 6.66108C19.9955 6.75577 20.0685 6.87013 20.1145 6.99609C20.1604 7.12205 20.1781 7.25655 20.1664 7.3901C20.1547 7.52366 20.1138 7.65302 20.0467 7.76907C19.9795 7.88511 19.8877 7.98502 19.7778 8.06175C19.5801 8.18177 19.3467 8.22913 19.1178 8.19567C18.8889 8.16221 18.6789 8.05002 18.5238 7.87841C18.3352 7.68395 18.1095 7.52924 17.8602 7.42344C17.6108 7.31764 17.3427 7.26289 17.0718 7.26241C16.5003 7.26501 15.9523 7.48988 15.5437 7.88941L14.0899 9.34416C13.7598 9.67451 13.5192 10.0835 13.3909 10.5326C13.2626 10.9816 13.2508 11.4559 13.3566 11.9108L13.5573 12.8807C13.7423 13.5878 13.7985 14.3225 13.7232 15.0495C13.7013 15.346 13.5928 15.6295 13.411 15.8649C13.2293 16.1002 12.9825 16.277 12.7011 16.3732C12.2322 16.4964 11.738 16.4844 11.2756 16.3384C10.8133 16.1924 10.4017 15.9184 10.0886 15.5482L6.0553 11.3773C5.8038 11.1265 5.62947 10.8088 5.55295 10.462C5.47643 10.1151 5.50093 9.75361 5.62355 9.42025V9.42025Z" fill="black"/>
</svg>
