<svg width="66" height="66" viewBox="0 0 66 66" fill="none" xmlns="http://www.w3.org/2000/svg">
<circle cx="33" cy="33" r="30.5" transform="rotate(-180 33 33)" stroke="white" stroke-width="5"/>
<path d="M39.375 22.2219V42.7039C39.3749 43.0664 39.2404 43.4208 38.9886 43.7222C38.7368 44.0237 38.3789 44.2586 37.9602 44.3973C37.5416 44.536 37.0809 44.5723 36.6364 44.5016C36.1919 44.4309 35.7836 44.2564 35.4631 44.0001L22.6619 33.7591C22.2323 33.4153 21.9909 32.949 21.9909 32.4629C21.9909 31.9768 22.2323 31.5105 22.6619 31.1667L35.4631 20.9257C35.7836 20.6694 36.1919 20.4949 36.6364 20.4242C37.0809 20.3535 37.5416 20.3898 37.9602 20.5285C38.3789 20.6672 38.7368 20.9021 38.9886 21.2036C39.2404 21.505 39.3749 21.8594 39.375 22.2219Z" fill="white"/>
</svg>
