<svg width="66" height="66" viewBox="0 0 66 66" fill="none" xmlns="http://www.w3.org/2000/svg">
<circle cx="33" cy="33" r="30.5" stroke="white" stroke-width="5"/>
<path d="M26.625 43.7781V23.2961C26.6251 22.9336 26.7596 22.5792 27.0114 22.2778C27.2632 21.9763 27.6211 21.7414 28.0397 21.6027C28.4584 21.464 28.9191 21.4277 29.3636 21.4984C29.8081 21.5691 30.2164 21.7436 30.5369 21.9999L43.3381 32.2409C43.7677 32.5847 44.0091 33.051 44.0091 33.5371C44.0091 34.0232 43.7677 34.4895 43.3381 34.8333L30.5369 45.0743C30.2164 45.3306 29.8081 45.5051 29.3636 45.5758C28.9191 45.6465 28.4584 45.6102 28.0397 45.4715C27.6211 45.3328 27.2632 45.0979 27.0114 44.7964C26.7596 44.495 26.6251 44.1406 26.625 43.7781Z" fill="white"/>
</svg>
