<svg width="33" height="32" viewBox="0 0 33 32" fill="none" xmlns="http://www.w3.org/2000/svg">
<path d="M7.79733 9.33317L15.46 16.1598C15.7042 16.3773 16.0197 16.4974 16.3467 16.4974C16.6736 16.4974 16.9892 16.3773 17.2333 16.1598L24.8973 9.33317H7.79733ZM27 11.0305L19.008 18.1518C18.2753 18.8048 17.3281 19.1657 16.3467 19.1657C15.3652 19.1657 14.418 18.8048 13.6853 18.1518L5.66667 11.0052V22.6665H27V11.0305ZM5.66667 6.6665H27C27.7072 6.6665 28.3855 6.94746 28.8856 7.44755C29.3857 7.94765 29.6667 8.62593 29.6667 9.33317V22.6665C29.6667 23.3737 29.3857 24.052 28.8856 24.5521C28.3855 25.0522 27.7072 25.3332 27 25.3332H5.66667C4.95942 25.3332 4.28115 25.0522 3.78105 24.5521C3.28095 24.052 3 23.3737 3 22.6665V9.33317C3 8.62593 3.28095 7.94765 3.78105 7.44755C4.28115 6.94746 4.95942 6.6665 5.66667 6.6665V6.6665Z" fill="#697077"/>
</svg>
