<svg width="33" height="33" viewBox="0 0 33 33" fill="none" xmlns="http://www.w3.org/2000/svg">
<path d="M21.4482 14.8764L16.1815 9.60971C15.9386 9.35824 15.8042 9.02144 15.8073 8.67185C15.8103 8.32225 15.9505 7.98783 16.1977 7.74062C16.4449 7.49341 16.7794 7.35319 17.129 7.35015C17.4786 7.34711 17.8154 7.4815 18.0668 7.72438L25.6095 15.267C25.7337 15.3906 25.8323 15.5375 25.8996 15.6992C25.9669 15.861 26.0015 16.0345 26.0015 16.2097C26.0015 16.3849 25.9669 16.5584 25.8996 16.7202C25.8323 16.882 25.7337 17.0288 25.6095 17.1524L18.0668 24.695C17.9438 24.8224 17.7967 24.924 17.634 24.9938C17.4714 25.0637 17.2964 25.1005 17.1194 25.102C16.9423 25.1036 16.7668 25.0699 16.6029 25.0028C16.439 24.9358 16.2902 24.8368 16.165 24.7116C16.0398 24.5864 15.9408 24.4375 15.8737 24.2737C15.8067 24.1098 15.773 23.9342 15.7745 23.7572C15.776 23.5801 15.8128 23.4052 15.8827 23.2425C15.9526 23.0798 16.0541 22.9327 16.1815 22.8097L21.4482 17.543H8.66683C8.31321 17.543 7.97407 17.4026 7.72402 17.1525C7.47397 16.9025 7.3335 16.5633 7.3335 16.2097C7.3335 15.8561 7.47397 15.517 7.72402 15.2669C7.97407 15.0169 8.31321 14.8764 8.66683 14.8764H21.4482V14.8764Z" fill="white"/>
</svg>
