<svg width="33" height="33" viewBox="0 0 33 33" fill="none" xmlns="http://www.w3.org/2000/svg">
<path d="M21.1147 14.8764L15.848 9.60971C15.6051 9.35824 15.4707 9.02144 15.4738 8.67185C15.4768 8.32225 15.617 7.98783 15.8642 7.74062C16.1115 7.49341 16.4459 7.35319 16.7955 7.35015C17.1451 7.34711 17.4819 7.4815 17.7333 7.72438L25.276 15.267C25.4002 15.3906 25.4988 15.5375 25.5661 15.6992C25.6334 15.861 25.668 16.0345 25.668 16.2097C25.668 16.3849 25.6334 16.5584 25.5661 16.7202C25.4988 16.882 25.4002 17.0288 25.276 17.1524L17.7333 24.695C17.6103 24.8224 17.4632 24.924 17.3005 24.9938C17.1379 25.0637 16.9629 25.1005 16.7859 25.102C16.6088 25.1036 16.4333 25.0699 16.2694 25.0028C16.1055 24.9358 15.9567 24.8368 15.8315 24.7116C15.7063 24.5864 15.6073 24.4375 15.5402 24.2737C15.4732 24.1098 15.4395 23.9342 15.441 23.7572C15.4425 23.5801 15.4793 23.4052 15.5492 23.2425C15.6191 23.0798 15.7207 22.9327 15.848 22.8097L21.1147 17.543H8.33333C7.97971 17.543 7.64057 17.4026 7.39052 17.1525C7.14048 16.9025 7 16.5633 7 16.2097C7 15.8561 7.14048 15.517 7.39052 15.2669C7.64057 15.0169 7.97971 14.8764 8.33333 14.8764H21.1147V14.8764Z" fill="#0F62FE"/>
</svg>
