<svg width="33" height="33" viewBox="0 0 33 33" fill="none" xmlns="http://www.w3.org/2000/svg">
<rect width="33" height="33" rx="16.5" fill="#E5E8EB"/>
<g clip-path="url(#clip0_7_221)">
<path d="M16 15.9999C17.1867 15.9999 18.3467 15.648 19.3334 14.9888C20.3201 14.3295 21.0892 13.3924 21.5433 12.296C21.9974 11.1997 22.1162 9.99329 21.8847 8.8294C21.6532 7.66551 21.0818 6.59642 20.2426 5.7573C19.4035 4.91819 18.3344 4.34674 17.1705 4.11523C16.0067 3.88372 14.8003 4.00254 13.7039 4.45666C12.6075 4.91079 11.6705 5.67983 11.0112 6.66652C10.3519 7.65321 10 8.81325 10 9.99994C10.0016 11.5908 10.6342 13.116 11.7591 14.2408C12.884 15.3657 14.4092 15.9984 16 15.9999ZM16 5.99994C16.7911 5.99994 17.5645 6.23454 18.2223 6.67406C18.8801 7.11359 19.3928 7.7383 19.6955 8.46921C19.9983 9.20011 20.0775 10.0044 19.9231 10.7803C19.7688 11.5562 19.3878 12.269 18.8284 12.8284C18.269 13.3878 17.5563 13.7687 16.7804 13.9231C16.0044 14.0774 15.2002 13.9982 14.4693 13.6955C13.7384 13.3927 13.1136 12.88 12.6741 12.2222C12.2346 11.5644 12 10.7911 12 9.99994C12 8.93908 12.4214 7.92166 13.1716 7.17151C13.9217 6.42137 14.9391 5.99994 16 5.99994Z" fill="#374957"/>
<path d="M16 18.0006C13.6139 18.0033 11.3262 18.9523 9.63896 20.6396C7.95171 22.3268 7.00265 24.6145 7 27.0006C7 27.2658 7.10536 27.5202 7.29289 27.7077C7.48043 27.8953 7.73478 28.0006 8 28.0006C8.26522 28.0006 8.51957 27.8953 8.70711 27.7077C8.89464 27.5202 9 27.2658 9 27.0006C9 25.1441 9.7375 23.3636 11.0503 22.0509C12.363 20.7381 14.1435 20.0006 16 20.0006C17.8565 20.0006 19.637 20.7381 20.9497 22.0509C22.2625 23.3636 23 25.1441 23 27.0006C23 27.2658 23.1054 27.5202 23.2929 27.7077C23.4804 27.8953 23.7348 28.0006 24 28.0006C24.2652 28.0006 24.5196 27.8953 24.7071 27.7077C24.8946 27.5202 25 27.2658 25 27.0006C24.9974 24.6145 24.0483 22.3268 22.361 20.6396C20.6738 18.9523 18.3861 18.0033 16 18.0006Z" fill="#374957"/>
</g>
<defs>
<clipPath id="clip0_7_221">
<rect width="24" height="24" fill="white" transform="translate(4 4)"/>
</clipPath>
</defs>
</svg>
